<?xml version="1.0" standalone="no"?>
<!DOCTYPE svg PUBLIC "-//W3C//DTD SVG 20010904//EN"
 "http://www.w3.org/TR/2001/REC-SVG-20010904/DTD/svg10.dtd">
<svg version="1.0" xmlns="http://www.w3.org/2000/svg"
 width="4000.000000pt" height="2500.000000pt" viewBox="0 0 4000.000000 2500.000000"
 preserveAspectRatio="xMidYMid meet">

<g transform="translate(0.000000,2500.000000) scale(0.100000,-0.100000)"
fill="#000000" stroke="none">
<path d="M19689 23166 c-2 -2 -88 -6 -191 -10 -103 -4 -195 -9 -205 -10 -10
-2 -67 -7 -128 -11 -60 -3 -121 -8 -135 -10 -14 -2 -59 -6 -100 -10 -41 -4
-86 -8 -100 -10 -14 -2 -68 -9 -120 -15 -2220 -264 -4335 -1250 -5980 -2788
-1633 -1527 -2746 -3518 -3179 -5687 -83 -416 -152 -916 -176 -1270 -4 -49 -8
-103 -10 -120 -25 -191 -25 -1298 -1 -1432 2 -10 7 -69 11 -132 4 -63 8 -121
10 -130 1 -9 6 -52 9 -96 4 -44 9 -91 11 -105 2 -14 6 -52 10 -85 7 -69 6 -64
41 -300 500 -3469 2725 -6502 5897 -8040 935 -453 1964 -778 2945 -930 l42 -7
0 3726 0 3726 -1355 0 -1355 0 0 1545 0 1545 1355 0 1355 0 0 1303 c0 1285 3
1442 35 1727 138 1232 674 2200 1545 2789 556 376 1179 584 1972 657 207 19
748 22 1058 5 534 -29 1187 -96 1673 -172 l137 -22 0 -1313 0 -1314 -707 0
c-753 0 -907 -6 -1120 -45 -722 -134 -1157 -610 -1243 -1360 -6 -56 -10 -497
-10 -1172 l0 -1083 1475 0 c1398 0 1475 -1 1475 -17 0 -19 -456 -3011 -465
-3050 l-5 -23 -1240 0 -1240 0 0 -3726 0 -3726 43 7 c1243 200 2490 642 3586
1272 644 371 1201 772 1781 1282 194 170 685 658 857 851 1367 1535 2245 3362
2582 5375 26 155 72 493 86 640 3 33 8 74 10 90 2 17 6 75 10 130 4 55 8 110
10 121 27 171 27 1276 0 1539 -2 22 -7 74 -10 115 -12 154 -17 201 -46 435
-202 1641 -777 3194 -1695 4575 -651 981 -1455 1843 -2389 2562 -773 595
-1608 1072 -2526 1442 -787 317 -1650 547 -2486 661 -247 34 -234 32 -413 50
-212 20 -248 23 -375 31 -60 3 -128 8 -150 10 -50 6 -860 15 -866 10z"/>
</g>
</svg>
